<?xml version="1.0" standalone="no"?>
<!DOCTYPE svg PUBLIC "-//W3C//DTD SVG 20010904//EN"
 "http://www.w3.org/TR/2001/REC-SVG-20010904/DTD/svg10.dtd">
<svg version="1.0" xmlns="http://www.w3.org/2000/svg"
 width="546.000000pt" height="546.000000pt" viewBox="0 0 546.000000 546.000000"
 preserveAspectRatio="xMidYMid meet">
<metadata>
Created by potrace 1.14, written by Peter Selinger 2001-2017
</metadata>
<g transform="translate(0.000000,546.000000) scale(0.100000,-0.100000)"
fill="#000000" stroke="none">
<path d="M2745 4460 c1 -14 -2 -39 -5 -55 -6 -25 -4 -31 10 -32 13 -1 16 4 12
24 -4 24 -3 25 22 19 19 -5 26 -3 26 8 0 9 -6 13 -15 10 -20 -8 -35 4 -28 21
6 17 43 21 43 4 0 -5 5 -7 10 -4 18 11 1 23 -38 27 -36 3 -39 1 -37 -22z"/>
<path d="M2137 4452 c-24 -3 -27 -7 -21 -25 4 -12 10 -39 13 -59 4 -27 10 -35
19 -29 10 6 10 14 2 35 -17 46 -13 66 14 66 37 0 51 -60 19 -79 -10 -5 -15
-12 -12 -15 13 -13 49 26 49 53 0 41 -29 60 -83 53z"/>
<path d="M3073 4402 c-15 -10 -30 -52 -26 -73 6 -25 50 -41 74 -28 24 12 38
46 31 71 -5 21 -42 45 -42 28 0 -5 4 -10 9 -10 16 0 21 -29 9 -55 -14 -31 -34
-38 -53 -19 -17 18 -12 48 13 77 15 17 7 23 -15 9z"/>
<path d="M1796 4334 c-22 -21 -20 -54 5 -80 18 -19 26 -21 47 -13 15 6 30 16
34 22 34 53 -42 116 -86 71z m58 -13 c25 -28 17 -66 -13 -66 -18 0 -27 8 -34
28 -17 52 13 76 47 38z"/>
<path d="M3393 4258 c-39 -19 -39 -76 2 -98 29 -16 62 1 76 38 9 23 7 30 -16
49 -29 26 -31 26 -62 11z m67 -33 c0 -8 -11 -26 -24 -42 -20 -24 -26 -25 -40
-14 -21 18 -20 33 5 65 17 21 24 24 40 16 10 -6 19 -17 19 -25z"/>
<path d="M1485 4156 c-26 -39 7 -94 54 -92 8 1 23 13 33 27 17 23 18 30 8 50
-25 46 -70 53 -95 15z m72 -17 c19 -31 11 -59 -16 -59 -36 0 -69 71 -38 83 22
10 38 2 54 -24z"/>
<path d="M3694 4072 c3 -5 -10 -24 -29 -42 l-34 -33 21 -19 c12 -10 24 -18 27
-19 3 0 14 -2 24 -4 23 -4 57 28 57 54 0 19 -45 71 -62 71 -5 0 -7 -4 -4 -8z
m43 -38 c3 -8 0 -27 -6 -40 -8 -19 -17 -25 -38 -22 -36 4 -38 18 -8 51 29 31
43 34 52 11z"/>
<path d="M1228 3938 c-34 -43 -11 -98 42 -98 20 0 61 33 60 49 -1 20 -31 43
-47 36 -15 -6 -15 -8 -3 -13 31 -11 41 -29 24 -43 -25 -21 -41 -19 -65 7 -18
20 -21 29 -13 42 6 9 21 18 33 20 12 2 19 8 16 13 -10 15 -29 10 -47 -13z"/>
<path d="M1911 3914 c-38 -47 -48 -101 -27 -143 16 -31 82 -88 92 -79 22 22
22 173 0 215 -23 46 -31 47 -65 7z"/>
<path d="M2795 3933 c-38 -20 -62 -51 -102 -127 -60 -114 -87 -230 -96 -427
-3 -46 -9 -63 -35 -95 -18 -21 -32 -42 -32 -46 0 -4 15 -8 32 -10 32 -3 33 -4
30 -48 -3 -38 -10 -52 -50 -91 -111 -109 -179 -203 -242 -333 -60 -123 -82
-219 -84 -356 -1 -100 2 -122 22 -166 13 -29 35 -63 50 -77 51 -47 155 -63
225 -33 66 27 96 68 157 211 19 43 30 93 36 155 6 65 6 412 0 565 -3 72 -1 82
18 95 39 28 230 140 237 140 5 0 4 -12 -1 -27 -15 -48 -32 -184 -35 -281 -4
-176 31 -281 110 -327 53 -31 94 -34 133 -10 45 29 99 93 137 166 25 49 42 69
53 67 33 -5 71 13 92 42 26 37 40 38 40 5 0 -30 26 -85 49 -102 38 -29 80 -13
128 50 l21 28 6 -28 c3 -16 8 -45 12 -66 9 -52 48 -87 96 -87 47 0 103 47 130
108 15 34 23 42 36 37 38 -16 51 -16 81 -1 29 15 31 15 31 0 0 -9 7 -31 16
-49 42 -88 161 -59 225 55 20 35 22 36 69 32 26 -2 57 1 69 8 19 10 23 8 32
-19 28 -79 118 -80 190 -2 12 12 23 21 24 19 2 -2 5 -26 6 -53 5 -115 53 -157
124 -111 31 20 100 107 126 158 11 21 21 38 24 38 7 0 26 -39 31 -63 2 -12 5
-92 5 -177 1 -163 9 -199 48 -220 30 -16 70 -12 100 9 42 30 74 101 126 276
26 88 53 172 61 187 19 37 18 40 -13 36 -23 -2 -31 -12 -49 -61 -13 -32 -23
-61 -23 -65 0 -4 -14 -51 -32 -104 -27 -86 -83 -197 -94 -186 -2 2 -5 65 -6
141 -1 156 -8 196 -37 225 -11 11 -28 32 -37 46 -14 22 -15 28 -2 53 29 55 48
139 52 224 5 94 -6 147 -32 167 -27 19 -43 15 -83 -26 -29 -29 -40 -51 -50
-97 -20 -95 -19 -186 4 -293 5 -24 -31 -101 -67 -142 -23 -26 -67 -60 -77 -60
-14 0 2 131 30 256 38 162 37 217 -1 227 -62 16 -104 -52 -134 -221 -13 -74
-83 -192 -114 -192 -32 0 -34 58 -7 171 11 42 16 84 13 93 -14 35 -90 6 -94
-36 -5 -69 -25 -144 -41 -156 -16 -12 -86 -11 -99 1 -2 3 0 22 6 44 19 65 24
169 11 221 -23 99 -120 148 -184 93 -25 -21 -46 -73 -46 -111 0 -16 -4 -30
-10 -30 -18 0 -50 -78 -61 -152 -12 -82 -29 -108 -71 -108 -24 0 -28 4 -28 28
0 15 4 43 10 62 54 199 24 368 -55 316 -56 -37 -79 -135 -58 -250 17 -93 0
-162 -60 -249 -39 -57 -69 22 -73 197 -1 65 -7 123 -12 128 -12 12 -42 -1 -43
-21 -1 -9 0 -44 0 -78 2 -66 -12 -106 -55 -152 -38 -40 -45 -16 -39 127 5 133
-3 167 -40 176 -49 12 -62 -5 -66 -84 -3 -51 -44 -136 -77 -158 -21 -14 -22
-13 -22 15 0 42 41 118 63 117 26 -3 22 42 -7 61 -25 17 -62 9 -84 -17 -16
-19 -42 -95 -48 -135 -9 -71 -77 -207 -130 -259 -49 -49 -61 -52 -96 -24 -39
30 -58 108 -56 230 2 105 2 105 44 170 74 115 119 212 168 363 59 178 55 241
-16 266 -25 9 -36 8 -56 -5 -65 -43 -117 -136 -167 -301 -32 -104 -34 -108
-63 -110 -16 -1 -73 -27 -127 -58 -54 -30 -101 -55 -106 -55 -5 0 -9 35 -9 78
0 85 -8 69 100 190 77 85 163 219 175 272 24 101 8 161 -49 185 -45 19 -93 18
-131 -2z m113 -62 c33 -21 -5 -121 -100 -261 -51 -76 -117 -160 -105 -135 3 6
8 37 11 70 11 106 21 143 62 232 43 91 87 123 132 94z m296 -297 c-6 -63 -128
-373 -141 -361 -2 3 8 51 22 108 14 57 27 109 28 114 4 19 29 80 55 138 20 44
28 54 33 40 3 -9 5 -27 3 -39z m1851 -354 c-2 -47 -9 -101 -17 -120 l-15 -35
-12 42 c-20 74 -15 147 16 207 15 28 17 29 23 11 4 -11 6 -58 5 -105z m-760
-4 c13 -34 16 -63 12 -118 -3 -40 -6 -74 -6 -76 -3 -10 -23 14 -35 41 -35 78
-40 133 -16 176 16 31 26 26 45 -23z m-28 -296 c-18 -42 -48 -80 -62 -80 -33
0 -46 71 -31 164 l9 49 47 -54 c43 -48 46 -56 37 -79z m-1672 -97 c-2 -223 -6
-261 -30 -371 -30 -130 -114 -252 -173 -252 -26 0 -35 6 -50 38 -11 20 -22 50
-26 65 -8 34 -9 171 -1 207 3 14 8 38 11 54 10 56 77 221 115 285 44 71 137
191 148 191 5 0 7 -98 6 -217z"/>
<path d="M496 3869 c-66 -23 -153 -83 -189 -131 -46 -61 -68 -134 -68 -234 -1
-62 23 -108 83 -154 29 -23 54 -46 56 -50 1 -4 -10 -10 -26 -13 -86 -17 -230
-195 -257 -317 -15 -67 -8 -147 18 -203 84 -180 333 -252 459 -132 35 32 105
135 125 183 l16 37 13 -48 c14 -57 26 -72 62 -85 58 -19 125 26 166 111 13 29
22 37 34 32 39 -16 53 -16 77 -1 32 21 32 21 49 -13 31 -59 87 -50 165 26 30
29 56 53 56 53 1 0 2 -49 4 -109 l2 -110 -41 -43 c-48 -50 -105 -133 -125
-182 -25 -60 -29 -136 -8 -176 23 -45 98 -85 143 -75 103 23 153 161 144 400
l-4 110 41 45 c69 77 132 177 125 197 -7 16 -10 15 -33 -12 -102 -122 -132
-154 -137 -147 -3 5 -8 60 -11 123 -12 237 -21 269 -72 246 -29 -13 -47 -51
-68 -142 -9 -38 -23 -81 -32 -95 -20 -32 -65 -80 -74 -80 -16 0 -32 77 -33
157 -1 85 -9 100 -37 67 -14 -17 -15 -21 -24 -104 -7 -60 -27 -90 -60 -90 -35
0 -46 20 -34 64 35 126 44 278 20 323 -26 49 -80 29 -114 -42 -22 -45 -25
-149 -7 -224 11 -46 10 -58 -6 -99 -9 -26 -31 -69 -47 -96 -30 -49 -31 -49
-48 -27 -22 27 -39 134 -38 238 2 99 -6 116 -40 94 -9 -6 -15 -31 -16 -72 -2
-64 -15 -104 -75 -234 -78 -169 -162 -209 -298 -143 -51 24 -71 51 -87 121
-42 180 60 393 209 440 68 22 79 40 41 70 -112 87 -135 134 -124 251 14 144
101 239 229 252 50 5 61 -11 61 -81 0 -74 -29 -136 -76 -158 -40 -19 -44 -32
-13 -41 40 -10 89 25 124 90 56 102 53 192 -6 228 -45 26 -124 28 -194 5z
m845 -1336 c-2 -98 -19 -183 -45 -218 -12 -17 -15 -17 -28 -4 -43 42 -48 91
-17 159 22 48 82 140 88 135 2 -2 3 -35 2 -72z"/>
<path d="M2292 3813 c-4 -79 -24 -135 -66 -187 -43 -52 -66 -101 -59 -123 7
-20 26 -15 51 11 12 14 36 27 52 31 30 7 99 76 101 102 3 31 3 40 -4 78 -6 37
-54 125 -67 125 -3 0 -7 -17 -8 -37z"/>
<path d="M3880 3744 c0 -8 5 -12 10 -9 6 3 10 10 10 16 0 5 -4 9 -10 9 -5 0
-10 -7 -10 -16z"/>
<path d="M1690 3665 c-7 -8 -32 -24 -55 -34 -49 -22 -79 -51 -106 -104 -24
-46 -38 -116 -29 -142 5 -16 8 -12 14 18 5 25 16 43 34 54 48 30 96 87 128
153 33 66 37 83 14 55z"/>
<path d="M1610 3200 c-11 -20 -9 -78 4 -98 10 -16 41 -15 54 1 15 17 8 97 -9
108 -22 14 -37 11 -49 -11z"/>
<path d="M1839 3200 c-35 -7 -95 -50 -110 -78 -20 -35 -13 -101 16 -177 59
-152 58 -135 11 -169 -68 -49 -98 -98 -99 -160 -2 -113 101 -176 191 -118 85
55 119 162 84 266 l-19 57 56 41 c80 58 111 89 111 110 0 29 -18 22 -102 -42
-44 -33 -84 -57 -89 -54 -10 6 -62 116 -57 118 94 34 136 118 88 178 -22 29
-44 36 -81 28z m48 -87 c6 -16 -36 -63 -58 -63 -12 0 -12 36 1 61 13 23 48 25
57 2z m-53 -432 c4 -45 -17 -99 -51 -128 -43 -38 -73 -24 -73 34 0 51 26 104
68 140 36 32 37 32 45 11 4 -12 9 -38 11 -57z"/>
<path d="M3548 2260 c-27 -53 -48 -107 -48 -120 0 -33 22 -90 35 -90 23 0 112
100 124 141 11 38 10 45 -14 94 -41 84 -44 84 -97 -25z"/>
<path d="M3004 2165 c-97 -45 -131 -120 -103 -230 l11 -45 21 28 c12 15 25 29
29 30 5 2 8 8 8 12 0 5 14 30 32 56 26 39 66 159 56 169 -2 2 -26 -7 -54 -20z"/>
<path d="M1951 2008 c-6 -18 -13 -52 -17 -75 -6 -37 -3 -48 22 -80 15 -21 31
-40 35 -43 8 -6 49 -140 42 -140 -2 0 -38 25 -79 55 -73 54 -87 72 -98 126 -9
41 -78 102 -138 120 -29 9 -54 16 -56 14 -2 -1 3 -24 9 -51 18 -70 85 -135
159 -153 30 -8 57 -17 60 -20 3 -4 35 -28 73 -54 37 -27 67 -52 67 -58 0 -5 7
-9 16 -9 9 0 28 -9 43 -19 42 -30 157 -73 183 -69 21 4 20 5 -7 12 -48 12
-137 48 -174 71 -28 17 -38 33 -56 90 -21 69 -21 70 -3 96 42 57 24 148 -39
196 l-31 24 -11 -33z"/>
<path d="M1005 1964 c-6 -8 -27 -21 -47 -28 -36 -12 -37 -13 -22 -32 8 -10 13
-14 10 -8 -10 21 27 27 42 7 11 -16 10 -19 -11 -28 -13 -5 -22 -15 -20 -21 2
-7 22 -2 53 13 34 16 47 28 44 38 -5 13 -8 13 -21 0 -19 -19 -29 -19 -37 1 -6
16 17 48 28 37 9 -9 7 10 -2 24 -6 9 -10 8 -17 -3z"/>
<path d="M4002 1935 c-15 -33 8 -53 44 -36 33 15 44 14 44 -4 0 -9 -10 -20
-22 -25 -20 -7 -20 -9 -4 -9 24 -1 45 27 38 51 -5 22 -27 23 -64 4 -26 -14
-28 -13 -28 4 0 10 8 20 18 22 15 3 15 4 1 10 -11 4 -20 -1 -27 -17z"/>
<path d="M3130 1887 c0 -7 -13 -28 -28 -47 -50 -60 -55 -78 -56 -194 -2 -114
-7 -136 -31 -136 -8 0 -17 -5 -21 -12 -4 -6 -3 -9 2 -6 5 2 25 12 44 21 50 23
75 49 95 100 14 37 25 48 70 70 32 15 68 44 92 73 21 26 50 61 66 77 15 17 25
32 23 34 -7 7 -174 -78 -201 -103 -14 -13 -27 -24 -28 -24 -1 0 -2 15 -3 32
-1 18 -2 54 -2 81 -1 26 -6 47 -12 47 -5 0 -10 -6 -10 -13z m-6 -264 c-3 -14
-15 -40 -27 -57 l-22 -31 -3 24 c-2 14 3 30 10 35 8 6 20 21 27 34 16 29 21
28 15 -5z"/>
<path d="M2582 1849 c-64 -41 -90 -119 -55 -169 25 -37 34 -40 64 -24 65 33
86 101 53 170 -22 45 -24 46 -62 23z"/>
<path d="M3913 1775 c-32 -35 -6 -63 41 -45 15 5 32 8 36 5 13 -8 1 -33 -18
-37 -12 -3 -14 -6 -5 -11 15 -10 47 37 39 58 -6 17 -42 20 -51 5 -8 -14 -45
-13 -45 1 0 6 9 13 20 16 11 3 17 9 14 14 -7 12 -17 11 -31 -6z"/>
<path d="M1085 1755 c-16 -14 -36 -25 -42 -25 -18 0 -16 -7 8 -41 11 -16 28
-29 37 -29 12 0 9 7 -12 24 l-30 23 23 12 c20 11 23 10 28 -8 3 -12 10 -18 20
-14 13 5 13 7 -1 15 -20 11 -21 34 -2 41 13 5 31 -18 28 -35 -1 -5 3 -8 8 -8
6 0 10 3 10 6 0 10 -34 64 -40 64 -3 -1 -18 -12 -35 -25z"/>
<path d="M1702 1748 c-9 -9 -6 -20 10 -50 27 -48 60 -70 107 -70 97 -1 201 5
201 13 0 4 -22 5 -49 2 -47 -5 -49 -4 -80 34 -52 65 -156 104 -189 71z"/>
<path d="M3809 1623 c-31 -38 -44 -57 -33 -50 6 3 27 -9 47 -27 l36 -33 20 28
c23 31 26 45 11 54 -5 3 -7 0 -5 -7 3 -8 0 -21 -7 -31 -12 -16 -16 -15 -48 12
-34 29 -35 30 -15 44 11 9 17 18 14 21 -3 3 -12 -2 -20 -11z"/>
<path d="M3843 1603 c4 -3 1 -13 -6 -21 -11 -13 -9 -14 10 -2 22 14 22 30 1
30 -6 0 -8 -3 -5 -7z"/>
<path d="M1225 1580 c-11 -5 -33 -11 -48 -15 -15 -3 -25 -10 -22 -16 5 -7 11
-7 19 0 9 7 16 7 24 -1 14 -14 16 -35 3 -40 -5 -1 -3 -12 5 -22 12 -18 14 -18
14 -3 0 10 6 28 14 40 18 29 29 67 19 66 -4 0 -17 -4 -28 -9z m9 -25 c-6 -16
-24 -21 -24 -7 0 11 11 22 21 22 5 0 6 -7 3 -15z"/>
<path d="M2933 1477 c-24 -12 -43 -25 -43 -30 0 -4 19 2 43 15 53 28 51 27 46
32 -2 2 -23 -6 -46 -17z"/>
<path d="M3680 1486 c-10 -13 -10 -16 -1 -14 7 2 20 -7 28 -19 15 -23 15 -23
-29 -17 -29 4 -48 2 -52 -5 -4 -6 -1 -11 6 -11 7 0 24 -16 38 -34 14 -19 29
-32 34 -29 4 3 -4 16 -18 30 -14 13 -26 26 -26 28 0 2 24 1 53 -2 l52 -6 -31
34 c-17 19 -33 40 -36 48 -3 10 -7 10 -18 -3z"/>
<path d="M1365 1451 c-3 -11 -19 -31 -35 -44 l-28 -24 28 -22 c32 -23 50 -27
50 -10 0 5 -4 8 -9 5 -4 -3 -16 0 -25 7 -16 12 -14 16 17 49 28 30 32 39 22
48 -10 8 -15 6 -20 -9z"/>
<path d="M2477 1405 c-73 -29 -119 -57 -125 -75 -4 -12 -1 -12 19 1 19 13 42
15 106 11 75 -4 86 -2 127 22 51 30 68 49 40 45 -11 -2 -25 0 -31 4 -7 5 -13
6 -13 4 0 -3 -15 -1 -34 3 -26 6 -48 2 -89 -15z"/>
<path d="M1505 1340 c-3 -6 1 -10 9 -10 24 0 19 -22 -13 -55 -23 -25 -26 -33
-14 -43 10 -10 13 -10 13 -1 0 7 12 27 26 46 24 32 27 33 40 16 11 -14 13 -15
14 -3 0 19 -67 63 -75 50z"/>
<path d="M3514 1339 c-3 -6 -2 -14 3 -18 22 -15 52 -64 46 -75 -4 -6 1 -5 10
3 16 12 15 15 -4 42 -11 16 -24 31 -30 34 -5 4 -7 11 -4 16 4 5 2 9 -4 9 -5 0
-13 -5 -17 -11z"/>
<path d="M3390 1252 c-37 -12 -40 -23 -14 -62 14 -21 23 -44 19 -50 -6 -9 -2
-9 14 -1 20 11 20 13 6 28 -14 14 -14 17 0 32 28 32 13 65 -25 53z m20 -32 c0
-11 -4 -20 -9 -20 -13 0 -32 26 -24 33 13 14 33 6 33 -13z"/>
<path d="M1673 1218 c-1 -11 -8 -28 -16 -37 -25 -29 -27 -39 -9 -52 9 -7 14
-10 10 -5 -13 16 10 45 32 39 24 -6 25 -16 5 -37 -14 -13 -13 -16 6 -27 16 -8
20 -8 14 1 -4 6 5 29 19 50 22 33 23 40 11 50 -12 10 -15 9 -15 -8 0 -28 -13
-34 -36 -17 -15 11 -17 16 -6 26 15 17 15 26 -1 32 -8 3 -14 -3 -14 -15z"/>
<path d="M3205 1156 c-11 -6 -21 -12 -23 -12 -2 -1 6 -17 17 -35 12 -19 21
-42 21 -53 0 -15 3 -16 14 -7 12 10 11 18 -7 51 -22 40 -19 57 8 46 13 -4 14
-10 5 -26 -13 -25 1 -27 17 -2 20 32 -16 58 -52 38z"/>
<path d="M3015 1042 c-3 -26 -8 -55 -9 -64 -2 -10 1 -15 9 -12 7 3 11 13 8 23
-6 23 35 37 44 15 5 -14 33 -20 33 -8 0 4 -18 26 -40 50 l-39 42 -6 -46z m26
-5 c-1 -12 -15 -9 -19 4 -3 6 1 10 8 8 6 -3 11 -8 11 -12z"/>
<path d="M1998 1035 c-21 -23 -35 -44 -32 -48 7 -6 44 29 44 42 0 6 4 12 9 15
5 3 9 -9 9 -28 0 -19 3 -39 7 -45 10 -17 23 -13 19 7 -2 9 -5 34 -8 55 -2 21
-6 39 -7 41 -2 1 -21 -16 -41 -39z"/>
<path d="M2200 1016 c0 -15 4 -25 10 -21 5 3 19 -13 30 -36 24 -46 30 -46 36
3 3 25 2 28 -5 13 -8 -19 -9 -19 -19 5 -5 14 -19 34 -31 44 -21 19 -21 19 -21
-8z"/>
<path d="M2837 1010 c3 -14 9 -35 14 -46 4 -12 5 -25 2 -28 -4 -3 1 -6 11 -6
13 0 15 5 9 28 -4 15 -8 39 -8 54 0 19 -5 26 -17 25 -13 -1 -16 -7 -11 -27z"/>
<path d="M2276 1021 c-4 -5 -2 -12 3 -15 5 -4 12 -2 15 3 4 5 2 12 -3 15 -5 4
-12 2 -15 -3z"/>
<path d="M2777 1024 c-3 -3 -3 -13 0 -21 5 -13 7 -24 12 -70 0 -7 8 -13 17
-13 10 0 12 5 7 13 -13 21 -12 37 3 37 9 0 12 5 9 10 -4 6 -11 8 -16 5 -8 -5
-14 16 -10 38 1 8 -13 9 -22 1z"/>
<path d="M2414 955 c-1 -59 9 -69 56 -53 45 17 55 66 18 92 -27 19 -38 20 -38
4 0 -6 3 -8 7 -5 11 11 33 -14 33 -37 0 -26 -18 -46 -41 -46 -13 0 -16 9 -15
47 0 25 -3 48 -9 50 -6 1 -10 -20 -11 -52z"/>
<path d="M2192 955 c-9 -19 -9 -25 1 -25 6 0 13 11 13 25 2 31 0 31 -14 0z"/>
</g>
</svg>
